<?xml version="1.0" standalone="no"?>
<!DOCTYPE svg PUBLIC "-//W3C//DTD SVG 20010904//EN"
 "http://www.w3.org/TR/2001/REC-SVG-20010904/DTD/svg10.dtd">
<svg version="1.0" xmlns="http://www.w3.org/2000/svg"
 width="1280.000000pt" height="1280.000000pt" viewBox="0 0 1280.000000 1280.000000"
 preserveAspectRatio="xMidYMid meet">
<g transform="translate(0.000000,1280.000000) scale(0.100000,-0.100000)"
fill="#000000" stroke="none">
<path d="M6836 12758 c-81 -127 -115 -193 -103 -204 6 -6 59 -39 117 -74 394
-237 739 -509 1081 -850 451 -450 771 -892 1048 -1451 304 -611 478 -1226 553
-1949 17 -169 17 -801 0 -980 -48 -488 -124 -840 -307 -1416 -21 -63 20 29 63
146 162 437 270 924 324 1465 19 195 16 797 -6 1000 -47 447 -123 811 -252
1208 -362 1111 -1066 2085 -2034 2815 -126 96 -446 312 -461 312 -4 0 -15 -10
-23 -22z"/>
<path d="M5690 12645 c-24 -63 -41 -118 -37 -121 3 -3 81 -36 174 -73 1315
-529 2336 -1458 2947 -2680 418 -836 623 -1799 577 -2719 -12 -237 -37 -486
-66 -668 -23 -146 -11 -124 19 33 64 342 86 572 93 958 7 407 -12 682 -73
1040 -110 651 -335 1281 -660 1846 -510 888 -1226 1599 -2149 2134 -207 120
-722 365 -767 365 -11 0 -29 -35 -58 -115z"/>
<path d="M7871 12515 c-44 -52 -81 -98 -81 -102 0 -5 55 -57 123 -115 154
-134 438 -423 578 -588 308 -363 541 -716 752 -1140 309 -619 488 -1248 559
-1965 17 -172 17 -778 0 -950 -55 -561 -177 -1072 -379 -1585 -63 -159 -258
-568 -343 -717 -68 -122 -37 -82 49 62 375 623 635 1353 741 2075 45 310 54
441 54 815 0 373 -9 508 -54 815 -160 1093 -643 2117 -1404 2980 -109 124
-412 429 -475 479 l-38 31 -82 -95z"/>
<path d="M4630 12498 c-25 -119 -34 -188 -25 -197 6 -4 62 -18 125 -30 721
-139 1451 -438 2060 -844 1407 -937 2292 -2451 2435 -4165 8 -101 15 -234 15
-297 0 -65 4 -116 10 -120 19 -12 6 455 -20 710 -96 923 -410 1807 -909 2555
-221 332 -411 562 -715 865 -300 299 -544 500 -861 710 -453 299 -921 525
-1440 695 -190 62 -597 170 -640 170 -20 0 -25 -8 -35 -52z"/>
<path d="M8905 12163 c-49 -41 -91 -78 -93 -82 -1 -3 17 -29 39 -56 89 -107
230 -296 321 -430 774 -1136 1103 -2477 937 -3815 -57 -456 -177 -922 -351
-1359 -80 -201 -242 -537 -348 -721 -106 -183 -301 -474 -434 -645 -64 -82
-130 -168 -147 -190 -30 -39 -30 -39 12 5 142 151 381 460 524 679 543 831
854 1760 916 2741 14 225 6 684 -15 890 -114 1079 -506 2070 -1164 2948 -46
61 -90 112 -96 111 -6 0 -51 -34 -101 -76z"/>
<path d="M3602 12028 l3 -133 214 -7 c1437 -46 2773 -618 3766 -1613 771 -773
1274 -1713 1520 -2843 40 -182 36 -119 -6 110 -176 950 -608 1861 -1237 2608
-138 163 -504 528 -661 659 -971 808 -2126 1260 -3421 1341 -91 5 -169 10
-173 10 -4 0 -6 -60 -5 -132z"/>
<path d="M9868 11639 c-60 -33 -108 -62 -108 -65 0 -3 26 -53 59 -112 620
-1127 845 -2384 646 -3612 -208 -1275 -868 -2450 -1862 -3314 -107 -93 -138
-126 -55 -60 275 221 565 497 780 744 942 1083 1432 2481 1372 3908 -29 687
-167 1317 -431 1974 -68 170 -273 598 -286 598 -4 0 -56 -27 -115 -61z"/>
<path d="M3180 11639 c-153 -9 -498 -45 -525 -55 -9 -4 -14 -14 -11 -23 3 -9
12 -64 22 -123 14 -90 20 -108 34 -108 10 0 78 9 152 20 1176 175 2323 -2
3353 -517 945 -473 1710 -1186 2276 -2123 98 -162 307 -586 384 -777 38 -95
70 -171 72 -170 4 4 -56 178 -100 292 -220 566 -547 1116 -949 1599 -129 153
-517 542 -668 668 -1133 942 -2543 1401 -4040 1317z"/>
<path d="M3305 11150 c-274 -22 -556 -60 -785 -106 -232 -46 -688 -170 -712
-193 -6 -5 65 -228 77 -240 3 -2 82 22 177 52 620 202 1197 297 1805 297 1128
0 2227 -344 3144 -986 629 -440 1179 -1027 1579 -1684 96 -157 121 -189 60
-75 -164 303 -397 647 -627 922 -964 1156 -2306 1859 -3828 2004 -146 13 -751
20 -890 9z"/>
<path d="M10723 10958 c-68 -24 -113 -46 -113 -54 0 -8 11 -44 25 -80 33 -89
117 -369 154 -519 164 -657 210 -1339 135 -2005 -191 -1694 -1178 -3214 -2673
-4115 -61 -36 -111 -68 -111 -71 0 -14 351 193 520 306 1319 884 2192 2254
2434 3820 40 258 56 453 63 750 10 461 -25 848 -118 1310 -55 272 -172 690
-194 696 -6 1 -61 -16 -122 -38z"/>
<path d="M3630 10700 c-811 -39 -1617 -253 -2362 -626 -93 -46 -168 -87 -168
-91 0 -10 121 -223 127 -223 3 0 44 22 92 49 1011 570 2208 819 3338 696 1055
-116 2046 -529 2878 -1199 237 -191 546 -489 734 -708 86 -101 118 -131 59
-56 -202 258 -582 652 -813 844 -794 660 -1693 1075 -2690 1243 -368 62 -820
89 -1195 71z"/>
<path d="M3850 10283 c-255 -17 -471 -43 -670 -79 -900 -163 -1735 -528 -2482
-1084 -76 -56 -138 -105 -138 -110 0 -12 151 -195 161 -195 5 0 59 40 121 90
828 660 1806 1079 2818 1204 245 31 419 41 680 41 471 0 857 -47 1317 -160
805 -199 1507 -551 2218 -1112 110 -87 55 -33 -95 94 -902 762 -2048 1224
-3240 1308 -131 9 -576 11 -690 3z"/>
<path d="M11448 10137 c-136 -23 -126 -9 -103 -152 55 -343 81 -798 65 -1139
-39 -825 -220 -1532 -576 -2246 -201 -403 -434 -757 -733 -1110 -135 -160
-450 -476 -611 -612 -490 -414 -1057 -751 -1647 -978 -62 -24 -111 -45 -110
-47 2 -1 48 12 103 31 648 220 1264 569 1815 1027 164 136 538 511 673 674
289 349 510 682 701 1060 344 678 532 1348 606 2155 20 207 17 766 -5 990 -23
252 -39 363 -51 365 -5 2 -63 -7 -127 -18z"/>
<path d="M4200 9924 c-1238 -73 -2397 -534 -3355 -1334 -218 -182 -500 -454
-637 -616 -17 -19 -15 -22 77 -102 52 -45 98 -82 103 -82 4 0 56 55 114 123
134 154 423 438 588 578 363 308 716 541 1140 752 615 308 1242 487 1950 557
179 18 630 24 826 11 738 -50 1428 -231 2099 -552 96 -46 328 -168 383 -201
17 -11 32 -17 32 -14 0 11 -280 172 -455 262 -649 333 -1331 531 -2085 604
-109 11 -666 21 -780 14z"/>
<path d="M4580 9624 c-769 -45 -1498 -239 -2185 -579 -925 -460 -1703 -1155
-2286 -2043 -49 -75 -88 -141 -86 -146 5 -14 208 -136 217 -131 4 3 33 48 65
102 365 614 884 1193 1450 1618 815 612 1726 969 2768 1082 194 22 839 25
1027 5 485 -50 938 -146 1349 -287 41 -14 77 -25 80 -25 33 2 -254 106 -466
169 -366 110 -701 176 -1103 217 -139 14 -689 26 -830 18z"/>
<path d="M4905 9389 c-852 -69 -1650 -313 -2366 -725 -888 -510 -1602 -1229
-2134 -2149 -120 -207 -365 -723 -365 -768 0 -17 228 -104 239 -91 4 5 36 81
70 169 428 1084 1171 2006 2122 2628 702 460 1486 750 2310 856 501 64 1054
61 1534 -9 202 -29 227 -31 135 -10 -110 25 -376 66 -560 86 -170 19 -811 28
-985 13z"/>
<path d="M5495 9249 c-1073 -61 -2102 -420 -2959 -1033 -283 -203 -496 -387
-756 -652 -621 -634 -1075 -1388 -1360 -2259 -62 -190 -170 -597 -170 -640 0
-20 8 -25 53 -35 118 -25 187 -34 196 -25 4 6 18 62 30 125 95 494 279 1031
512 1490 774 1532 2206 2605 3900 2924 297 56 655 95 884 97 61 0 119 4 130 9
25 11 -266 10 -460 -1z"/>
<path d="M11896 9188 c-3 -7 -7 -107 -10 -223 -33 -1166 -446 -2323 -1156
-3235 -559 -718 -1285 -1286 -2112 -1652 -391 -173 -736 -285 -1188 -384 -180
-39 -116 -35 112 7 1395 258 2654 1047 3495 2189 605 821 975 1787 1088 2837
11 107 35 421 35 465 0 5 -59 8 -130 8 -96 0 -132 -3 -134 -12z"/>
<path d="M5450 9133 c-858 -138 -1637 -443 -2325 -911 -307 -208 -527 -392
-815 -681 -227 -227 -355 -374 -527 -604 -538 -721 -896 -1561 -1053 -2471
-44 -261 -60 -403 -85 -774 l-7 -93 134 3 133 3 7 210 c56 1714 853 3268 2193
4275 665 499 1434 843 2270 1016 144 29 188 45 75 27z"/>
<path d="M4890 8891 c-286 -102 -636 -263 -911 -421 -646 -369 -1245 -898
-1690 -1490 -573 -762 -946 -1667 -1078 -2610 -45 -322 -55 -471 -54 -840 0
-257 4 -402 17 -525 21 -218 37 -340 45 -353 4 -6 49 -2 129 11 141 23 130 9
107 152 -141 879 -67 1824 209 2659 84 254 158 432 291 701 279 567 593 1004
1039 1451 348 347 664 593 1096 854 174 105 592 311 790 390 85 34 157 64 159
66 11 10 -24 0 -149 -45z"/>
<path d="M4495 8599 c-1225 -695 -2134 -1803 -2575 -3138 -176 -534 -265
-1064 -277 -1657 -11 -543 44 -1029 177 -1564 42 -167 117 -421 128 -432 11
-10 242 73 242 87 0 7 -7 32 -16 56 -42 115 -118 368 -158 527 -358 1409 -166
2859 542 4107 459 809 1116 1485 1944 2001 84 52 154 97 157 99 13 13 -17 -2
-164 -86z"/>
<path d="M4160 8250 c-242 -198 -566 -519 -763 -756 -742 -894 -1176 -1947
-1283 -3119 -20 -217 -22 -693 -5 -905 51 -609 186 -1183 413 -1750 72 -179
281 -620 294 -620 10 0 224 121 224 127 0 2 -26 52 -59 111 -568 1032 -810
2203 -686 3320 67 597 221 1157 470 1703 202 445 495 901 833 1299 128 150
386 415 531 543 63 56 129 114 145 129 17 15 29 27 26 28 -3 0 -66 -50 -140
-110z"/>
<path d="M12295 8188 c-2 -7 -15 -71 -30 -143 -288 -1420 -1069 -2638 -2221
-3462 -861 -616 -1953 -986 -3011 -1020 -106 -3 -193 -10 -193 -15 0 -18 457
-4 715 23 1137 114 2182 554 3067 1292 163 135 526 498 668 667 528 628 918
1361 1151 2164 47 162 109 415 109 445 0 23 -1 23 -125 46 -98 18 -124 19
-130 3z"/>
<path d="M3903 7868 c-823 -948 -1299 -2098 -1384 -3348 -14 -215 -6 -696 15
-900 115 -1079 506 -2071 1164 -2947 46 -62 88 -113 92 -113 9 0 194 148 197
159 2 3 -40 60 -93 126 -723 902 -1151 1984 -1234 3120 -13 178 -13 570 0 745
54 739 234 1402 560 2065 197 400 418 746 702 1098 44 53 77 97 75 97 -3 0
-45 -46 -94 -102z"/>
<path d="M3660 7368 c-115 -193 -289 -545 -374 -753 -566 -1401 -552 -2950 39
-4330 309 -721 797 -1421 1362 -1950 176 -166 146 -160 241 -50 45 52 82 98
82 103 0 5 -39 42 -87 83 -129 109 -378 355 -513 505 -817 911 -1291 1993
-1412 3219 -17 172 -17 778 0 950 56 570 185 1105 387 1606 87 214 232 516
339 707 20 34 34 62 31 62 -2 0 -45 -69 -95 -152z"/>
<path d="M12509 7123 c-553 -1484 -1616 -2620 -3016 -3226 -948 -411 -1991
-545 -3046 -391 -60 8 -111 13 -113 11 -10 -10 324 -64 526 -86 391 -43 924
-41 1275 4 900 114 1688 402 2418 881 844 555 1515 1311 1981 2234 107 211
226 476 226 503 0 10 -38 29 -110 56 -61 22 -115 41 -121 41 -5 0 -14 -12 -20
-27z"/>
<path d="M3570 6978 c0 -2 -23 -65 -50 -138 -165 -438 -279 -948 -332 -1485
-19 -196 -16 -799 6 -1000 49 -465 127 -829 266 -1245 403 -1208 1200 -2238
2303 -2978 93 -62 174 -111 181 -109 6 2 39 50 73 108 49 80 60 106 50 115 -6
6 -59 39 -117 74 -702 422 -1321 1012 -1775 1690 -507 758 -796 1562 -902
2510 -22 195 -25 836 -5 1030 49 478 147 941 287 1349 14 41 23 77 20 79 -3 3
-5 3 -5 0z"/>
<path d="M3521 6504 c0 -11 3 -14 6 -6 3 7 2 16 -1 19 -3 4 -6 -2 -5 -13z"/>
<path d="M3492 6362 c-61 -328 -83 -562 -89 -934 -7 -414 11 -679 73 -1043
258 -1528 1138 -2879 2444 -3752 203 -136 402 -252 630 -367 202 -102 477
-226 504 -226 17 0 103 228 90 239 -5 4 -79 35 -165 69 -884 348 -1664 909
-2264 1627 -610 730 -1030 1639 -1189 2575 -103 604 -110 1137 -25 1768 12 84
19 155 17 158 -3 2 -14 -49 -26 -114z"/>
<path d="M12547 6058 c-8 -13 -45 -72 -81 -132 -867 -1414 -2277 -2363 -3876
-2611 -267 -42 -436 -56 -735 -62 -488 -10 -880 29 -1350 133 -160 36 -465
121 -604 168 -108 37 -98 25 15 -18 465 -178 972 -294 1529 -348 196 -19 799
-16 1000 6 465 49 829 127 1245 266 1088 363 2044 1053 2757 1993 132 174 335
476 330 490 -3 10 -56 45 -169 111 l-47 27 -14 -23z"/>
<path d="M3541 5835 c-5 -1168 363 -2339 1031 -3280 259 -365 594 -733 933
-1024 545 -468 1214 -847 1917 -1087 263 -89 717 -208 734 -192 9 10 47 225
42 239 -4 10 -40 21 -104 33 -120 23 -381 86 -524 127 -761 222 -1431 577
-2050 1089 -173 142 -561 534 -703 710 -661 817 -1058 1725 -1206 2765 -26
179 -51 476 -52 613 0 59 -4 116 -9 127 -5 12 -9 -33 -9 -120z"/>
<path d="M9206 5795 c-9 -26 -7 -32 5 -12 6 10 9 21 6 23 -2 3 -7 -2 -11 -11z"/>
<path d="M3666 5470 c21 -202 122 -632 216 -920 366 -1123 1063 -2089 2008
-2787 825 -609 1840 -993 2885 -1093 99 -9 380 -30 413 -30 10 0 12 30 10 133
l-3 132 -201 6 c-882 28 -1728 251 -2486 656 -1019 543 -1831 1385 -2343 2428
-210 427 -360 864 -470 1373 -19 86 -32 132 -29 102z"/>
<path d="M3860 5039 c0 -28 117 -336 195 -514 451 -1035 1235 -1939 2187
-2524 760 -467 1563 -733 2498 -827 240 -24 813 -24 1055 0 218 21 340 37 353
45 6 4 2 49 -11 129 -23 143 -2 131 -193 102 -1152 -174 -2302 1 -3324 506
-545 269 -1007 600 -1441 1034 -347 347 -607 681 -866 1113 -108 180 -303 576
-383 777 -57 142 -70 172 -70 159z"/>
<path d="M12329 4923 c-106 -125 -353 -376 -499 -508 -574 -516 -1231 -903
-1945 -1145 -412 -139 -821 -226 -1280 -272 -172 -17 -777 -17 -950 0 -560 55
-1075 178 -1585 379 -160 63 -570 259 -717 343 -126 71 -79 35 64 -51 722
-430 1490 -681 2368 -776 224 -24 813 -24 1040 1 305 32 562 76 810 137 1047
260 1968 789 2753 1578 90 91 176 181 192 202 l30 36 -95 82 c-52 44 -98 81
-103 81 -5 0 -42 -39 -83 -87z"/>
<path d="M4151 4585 c370 -690 916 -1325 1554 -1808 851 -643 1823 -1016 2920
-1119 213 -20 806 -17 1025 5 330 33 653 91 965 171 176 46 365 103 377 115
10 9 -72 241 -86 241 -6 0 -72 -20 -146 -45 -963 -324 -1971 -390 -2930 -194
-1503 308 -2815 1236 -3620 2559 -96 158 -120 188 -59 75z"/>
<path d="M4476 4255 c171 -225 488 -559 729 -770 1280 -1118 2970 -1594 4652
-1310 581 99 1142 284 1693 560 119 60 150 79 146 92 -12 30 -117 213 -123
213 -3 0 -58 -29 -122 -64 -1116 -612 -2351 -836 -3572 -646 -873 136 -1731
499 -2444 1033 -297 223 -598 497 -828 756 -58 64 -119 132 -137 151 -28 31
-28 29 6 -15z"/>
<path d="M4880 3950 c30 -28 118 -103 195 -166 913 -748 2018 -1184 3205
-1265 214 -14 696 -6 896 15 972 104 1843 418 2659 958 162 108 405 287 405
299 0 8 -149 193 -159 197 -3 1 -57 -39 -119 -89 -783 -628 -1710 -1040 -2677
-1188 -301 -46 -435 -55 -820 -56 -234 0 -416 5 -495 13 -716 74 -1329 248
-1945 552 -358 177 -676 375 -980 611 -77 60 -158 123 -180 140 -27 21 -22 14
15 -21z"/>
<path d="M6288 3523 c7 -3 16 -2 19 1 4 3 -2 6 -13 5 -11 0 -14 -3 -6 -6z"/>
</g>
</svg>
